<?xml version="1.0" encoding="utf-8"?>
<!-- Generator: Adobe Illustrator 23.0.1, SVG Export Plug-In . SVG Version: 6.00 Build 0)  -->
<svg version="1.1" id="Ebene_1" xmlns="http://www.w3.org/2000/svg" xmlns:xlink="http://www.w3.org/1999/xlink" x="0px" y="0px"
	 viewBox="0 0 595.28 841.89" style="enable-background:new 0 0 595.28 841.89;" xml:space="preserve">
<style type="text/css">
	.st0{fill:#E52923;}
</style>
<path d="M255.23,396.69c0,5.5-3.3,9.27-7.87,9.27c-2.3,0-4.07-0.87-5.47-2.47h-0.17v9.03c0,0.27-0.13,0.4-0.4,0.4h-1.53
	c-0.27,0-0.4-0.13-0.4-0.4l0.07-24.07c0-0.27,0.13-0.4,0.4-0.4h1.4c0.27,0,0.4,0.13,0.4,0.4v2.23h0.2c1.33-1.97,3.57-3,5.87-3
	C252.23,387.69,255.23,391.43,255.23,396.69z M241.57,394.83v4.1c0.7,3.3,2.93,5,5.67,5c3.53,0,5.73-2.77,5.73-7.07
	c0-4.37-2.27-7.13-5.77-7.13C244.5,389.73,242.17,391.53,241.57,394.83z"/>
<path d="M274.68,396.63c0,5.4-3.5,9.33-8.23,9.33c-4.63,0-7.97-3.8-7.97-9.07c0-5.47,3.47-9.2,8.2-9.2
	C271.34,387.69,274.68,391.29,274.68,396.63z M260.71,396.69c0,4.3,2.53,7.23,5.93,7.23c3.37,0,5.77-2.87,5.77-7.07
	c0-4.37-2.5-7.13-5.93-7.13C263.11,389.73,260.71,392.43,260.71,396.69z"/>
<path d="M291.29,391.89c0.1,0.27-0.03,0.43-0.33,0.43h-1.37c-0.23,0-0.37-0.1-0.5-0.27c-0.83-1.47-2.13-2.37-4.43-2.37
	c-2.27,0-3.87,1.07-3.87,2.73c0,1.57,1.47,2.2,4.03,2.97l1.37,0.4c3.8,1.13,5.47,2.63,5.47,5.07c0,3.13-2.57,5.1-6.5,5.1
	c-3.8,0-6.23-1.9-7.23-4.63c-0.1-0.3,0.07-0.47,0.33-0.47h1.57c0.23,0,0.37,0.1,0.47,0.3c0.83,1.87,2.63,2.77,5,2.77
	c2.3,0,4.07-0.87,4.07-2.87c0-1.67-1.4-2.53-4.3-3.43l-1.3-0.37c-3.1-0.93-5.2-2.07-5.2-4.67c0-2.97,2.67-4.9,6.2-4.9
	C288.59,387.69,290.59,389.86,291.29,391.89z"/>
<path d="M298.43,405.19c0,0.27-0.13,0.4-0.4,0.4h-1.53c-0.27,0-0.4-0.13-0.4-0.4l0.07-16.73c0-0.27,0.13-0.4,0.4-0.4h1.4
	c0.27,0,0.4,0.13,0.4,0.4L298.43,405.19z M298.4,383.46c0,0.27-0.13,0.4-0.4,0.4h-1.4c-0.27,0-0.4-0.13-0.4-0.4v-2.17
	c0-0.27,0.13-0.4,0.4-0.4h1.4c0.27,0,0.4,0.13,0.4,0.4V383.46z"/>
<path d="M311.93,389.56c0,0.27-0.13,0.4-0.4,0.4h-3.57l0.07,15.23c0,0.27-0.13,0.4-0.4,0.4h-1.57c-0.27,0-0.4-0.13-0.4-0.4
	l0.07-15.23h-2.87c-0.27,0-0.4-0.13-0.4-0.4v-1.1c0-0.27,0.13-0.4,0.4-0.4h2.87l0.03-6.6c0-0.27,0.13-0.4,0.4-0.4h1.37
	c0.27,0,0.4,0.13,0.4,0.4l0.03,6.6h3.57c0.27,0,0.4,0.13,0.4,0.4V389.56z"/>
<path d="M318.01,405.19c0,0.27-0.13,0.4-0.4,0.4h-1.53c-0.27,0-0.4-0.13-0.4-0.4l0.07-16.73c0-0.27,0.13-0.4,0.4-0.4h1.4
	c0.27,0,0.4,0.13,0.4,0.4L318.01,405.19z M317.97,383.46c0,0.27-0.13,0.4-0.4,0.4h-1.4c-0.27,0-0.4-0.13-0.4-0.4v-2.17
	c0-0.27,0.13-0.4,0.4-0.4h1.4c0.27,0,0.4,0.13,0.4,0.4V383.46z"/>
<path d="M330.91,405.26c-0.07,0.23-0.2,0.33-0.43,0.33h-2.37c-0.23,0-0.37-0.1-0.43-0.33l-5.8-16.73c-0.1-0.3,0.03-0.47,0.33-0.47
	h1.37c0.23,0,0.37,0.1,0.43,0.33l5.17,14.77h0.3l5.23-14.77c0.07-0.23,0.2-0.33,0.43-0.33h1.33c0.3,0,0.43,0.17,0.33,0.47
	L330.91,405.26z"/>
<path d="M354.85,396.53c0,0.27-0.13,0.4-0.4,0.4h-12.87c-0.03,4.07,2.13,7,5.93,7c2.2,0,3.73-0.97,4.73-2.7
	c0.13-0.17,0.27-0.27,0.5-0.27h1.33c0.3,0,0.43,0.2,0.3,0.47c-1.3,2.87-3.77,4.53-7.03,4.53c-4.8,0-8-3.67-8-9
	c0-5.5,3.37-9.17,8.13-9.17C352.32,387.79,354.99,391.63,354.85,396.53z M341.75,395.13h10.83c-0.13-2.97-2.03-5.33-5.27-5.33
	C344.19,389.79,342.22,392.03,341.75,395.13z"/>
<path d="M241.74,438.16c0,0.27-0.13,0.4-0.4,0.4h-1.54c-0.27,0-0.4-0.13-0.4-0.4v-2.17l-0.2-0.03c-1.27,1.97-3.51,2.97-5.81,2.97
	c-4.5,0-7.47-3.74-7.47-8.98c0-5.57,3.27-9.31,8.04-9.31c2.24,0,4,0.93,5.34,2.5h0.13l0.03-8.91c0-0.27,0.13-0.4,0.4-0.4h1.4
	c0.27,0,0.4,0.13,0.4,0.4L241.74,438.16z M228.16,429.75c0,4.37,2.3,7.14,5.81,7.14c2.67,0,5.01-1.77,5.61-5.07v-4.1
	c-0.67-3.37-2.9-5.04-5.64-5.04C230.4,422.68,228.16,425.45,228.16,429.75z"/>
<path d="M249.7,438.16c0,0.27-0.13,0.4-0.4,0.4h-1.54c-0.27,0-0.4-0.13-0.4-0.4l0.07-16.75c0-0.27,0.13-0.4,0.4-0.4h1.4
	c0.27,0,0.4,0.13,0.4,0.4L249.7,438.16z M249.66,416.41c0,0.27-0.13,0.4-0.4,0.4h-1.4c-0.27,0-0.4-0.13-0.4-0.4v-2.17
	c0-0.27,0.13-0.4,0.4-0.4h1.4c0.27,0,0.4,0.13,0.4,0.4V416.41z"/>
<path d="M267.65,424.85c0.1,0.27-0.03,0.43-0.33,0.43h-1.37c-0.23,0-0.37-0.1-0.5-0.27c-0.83-1.47-2.14-2.37-4.44-2.37
	c-2.27,0-3.87,1.07-3.87,2.74c0,1.57,1.47,2.2,4.04,2.97l1.37,0.4c3.8,1.13,5.47,2.64,5.47,5.07c0,3.14-2.57,5.11-6.51,5.11
	c-3.8,0-6.24-1.9-7.24-4.64c-0.1-0.3,0.07-0.47,0.33-0.47h1.57c0.23,0,0.37,0.1,0.47,0.3c0.83,1.87,2.64,2.77,5,2.77
	c2.3,0,4.07-0.87,4.07-2.87c0-1.67-1.4-2.54-4.3-3.44l-1.3-0.37c-3.1-0.93-5.21-2.07-5.21-4.67c0-2.97,2.67-4.91,6.21-4.91
	C264.95,420.64,266.95,422.81,267.65,424.85z"/>
<path d="M286.05,425.58c0.1,0.27-0.03,0.43-0.33,0.43h-1.37c-0.23,0-0.37-0.1-0.47-0.3c-0.9-1.9-2.47-3-4.84-3
	c-3.64,0-5.67,2.74-5.67,7.17c0,4.31,2.04,7.01,5.77,7.01c2.44,0,3.87-1.13,4.67-2.74c0.1-0.2,0.23-0.3,0.47-0.3h1.37
	c0.3,0,0.43,0.17,0.33,0.47c-0.97,2.47-3.34,4.61-7.04,4.61c-4.77,0-7.81-3.67-7.81-8.94c0-5.61,3.14-9.28,7.91-9.28
	C282.75,420.71,285.18,422.91,286.05,425.58z"/>
<path d="M292.3,438.16c0,0.27-0.13,0.4-0.4,0.4h-1.54c-0.27,0-0.4-0.13-0.4-0.4l0.07-16.75c0-0.27,0.13-0.4,0.4-0.4h1.4
	c0.27,0,0.4,0.13,0.4,0.4L292.3,438.16z M292.27,416.41c0,0.27-0.13,0.4-0.4,0.4h-1.4c-0.27,0-0.4-0.13-0.4-0.4v-2.17
	c0-0.27,0.13-0.4,0.4-0.4h1.4c0.27,0,0.4,0.13,0.4,0.4V416.41z"/>
<path d="M313.76,429.65c0,5.51-3.3,9.28-7.88,9.28c-2.3,0-4.07-0.87-5.47-2.47h-0.17v9.04c0,0.27-0.13,0.4-0.4,0.4h-1.53
	c-0.27,0-0.4-0.13-0.4-0.4l0.07-24.09c0-0.27,0.13-0.4,0.4-0.4h1.4c0.27,0,0.4,0.13,0.4,0.4v2.24h0.2c1.33-1.97,3.57-3,5.87-3
	C310.76,420.64,313.76,424.38,313.76,429.65z M300.08,427.79v4.1c0.7,3.3,2.94,5.01,5.67,5.01c3.54,0,5.74-2.77,5.74-7.08
	c0-4.37-2.27-7.14-5.77-7.14C303.02,422.68,300.68,424.48,300.08,427.79z"/>
<path d="M321.18,438.16c0,0.27-0.13,0.4-0.4,0.4h-1.57c-0.27,0-0.4-0.13-0.4-0.4l0.1-23.93c0-0.27,0.13-0.4,0.4-0.4h1.37
	c0.27,0,0.4,0.13,0.4,0.4L321.18,438.16z"/>
<path d="M329.93,438.16c0,0.27-0.13,0.4-0.4,0.4h-1.54c-0.27,0-0.4-0.13-0.4-0.4l0.07-16.75c0-0.27,0.13-0.4,0.4-0.4h1.4
	c0.27,0,0.4,0.13,0.4,0.4L329.93,438.16z M329.89,416.41c0,0.27-0.13,0.4-0.4,0.4h-1.4c-0.27,0-0.4-0.13-0.4-0.4v-2.17
	c0-0.27,0.13-0.4,0.4-0.4h1.4c0.27,0,0.4,0.13,0.4,0.4V416.41z"/>
<path d="M349.32,426.82v11.35c0,0.27-0.13,0.4-0.4,0.4h-1.57c-0.27,0-0.4-0.13-0.4-0.4v-10.81c0-3.07-1.47-4.54-3.84-4.54
	c-2.5,0-4.47,1.67-5.27,4.87l0.03,10.48c0,0.27-0.13,0.4-0.4,0.4h-1.53c-0.27,0-0.4-0.13-0.4-0.4l0.07-16.75
	c0-0.27,0.13-0.4,0.4-0.4h1.4c0.27,0,0.4,0.13,0.4,0.4l0.03,2.34l0.2,0.03c1.37-1.8,3.2-3.14,5.81-3.14
	C347.15,420.64,349.32,422.81,349.32,426.82z"/>
<path d="M369.12,429.49c0,0.27-0.13,0.4-0.4,0.4h-12.88c-0.03,4.07,2.14,7.01,5.94,7.01c2.2,0,3.74-0.97,4.74-2.7
	c0.13-0.17,0.27-0.27,0.5-0.27h1.34c0.3,0,0.43,0.2,0.3,0.47c-1.3,2.87-3.77,4.54-7.04,4.54c-4.8,0-8.01-3.67-8.01-9.01
	c0-5.51,3.37-9.18,8.14-9.18C366.58,420.74,369.25,424.58,369.12,429.49z M356,428.08h10.84c-0.13-2.97-2.04-5.34-5.27-5.34
	C358.44,422.75,356.47,424.98,356,428.08z"/>
<path class="st0" d="M309.45,453.45c0.06,0.15-0.02,0.24-0.19,0.24h-0.76c-0.13,0-0.21-0.06-0.28-0.15
	c-0.47-0.82-1.19-1.32-2.48-1.32c-1.27,0-2.16,0.6-2.16,1.53c0,0.88,0.82,1.23,2.26,1.66l0.76,0.22c2.12,0.63,3.06,1.47,3.06,2.83
	c0,1.75-1.43,2.85-3.63,2.85c-2.12,0-3.48-1.06-4.04-2.59c-0.06-0.17,0.04-0.26,0.19-0.26h0.88c0.13,0,0.2,0.06,0.26,0.17
	c0.47,1.04,1.47,1.55,2.8,1.55c1.29,0,2.27-0.49,2.27-1.6c0-0.93-0.78-1.42-2.4-1.92l-0.73-0.2c-1.73-0.52-2.91-1.16-2.91-2.61
	c0-1.66,1.49-2.74,3.47-2.74C307.95,451.1,309.06,452.31,309.45,453.45z"/>
<path class="st0" d="M319.73,453.86c0.06,0.15-0.02,0.24-0.19,0.24h-0.76c-0.13,0-0.21-0.06-0.26-0.17c-0.5-1.06-1.38-1.68-2.7-1.68
	c-2.03,0-3.17,1.53-3.17,4.01c0,2.4,1.14,3.91,3.22,3.91c1.36,0,2.16-0.63,2.61-1.53c0.06-0.11,0.13-0.17,0.26-0.17h0.76
	c0.17,0,0.24,0.09,0.19,0.26c-0.54,1.38-1.86,2.57-3.93,2.57c-2.67,0-4.36-2.05-4.36-4.99c0-3.13,1.75-5.18,4.42-5.18
	C317.88,451.14,319.24,452.37,319.73,453.86z"/>
<path class="st0" d="M323.15,452.85c0.73-0.97,1.79-1.68,3.19-1.68c1.84,0,3.02,1.19,3.02,3.37l0.04,6.34
	c0,0.15-0.07,0.22-0.22,0.22h-0.88c-0.15,0-0.22-0.07-0.22-0.22l0.02-6.04c0.02-1.64-0.78-2.48-2.14-2.48
	c-1.38,0-2.48,0.93-2.93,2.67l0.02,5.85c0,0.15-0.07,0.22-0.22,0.22h-0.86c-0.15,0-0.22-0.07-0.22-0.22l0.04-13.36
	c0-0.15,0.07-0.22,0.22-0.22h0.78c0.15,0,0.22,0.07,0.22,0.22l0.02,5.31L323.15,452.85z"/>
<path class="st0" d="M344.4,451.3c0.17,0,0.24,0.09,0.19,0.24l-2.68,9.37c-0.04,0.13-0.11,0.19-0.26,0.19h-1.25
	c-0.13,0-0.2-0.06-0.24-0.19l-2.18-7.23h-0.15l-2.03,7.23c-0.04,0.13-0.11,0.19-0.26,0.19h-1.25c-0.15,0-0.22-0.06-0.26-0.19
	l-2.68-9.37c-0.06-0.15,0.02-0.24,0.19-0.24h0.76c0.15,0,0.22,0.06,0.26,0.19l2.31,8.22h0.17l2.33-8.22
	c0.04-0.13,0.11-0.19,0.26-0.19h0.67c0.15,0,0.22,0.06,0.26,0.19l2.39,8.22h0.15l2.33-8.22c0.04-0.13,0.11-0.19,0.26-0.19H344.4z"/>
<path class="st0" d="M354.66,456.04c0,0.15-0.07,0.22-0.22,0.22h-7.19c-0.02,2.27,1.19,3.91,3.32,3.91c1.23,0,2.09-0.54,2.65-1.51
	c0.07-0.09,0.15-0.15,0.28-0.15h0.75c0.17,0,0.24,0.11,0.17,0.26c-0.73,1.6-2.11,2.53-3.93,2.53c-2.68,0-4.47-2.05-4.47-5.03
	c0-3.08,1.88-5.13,4.55-5.13C353.24,451.16,354.73,453.3,354.66,456.04z M347.33,455.26h6.06c-0.07-1.66-1.14-2.98-2.94-2.98
	C348.69,452.27,347.59,453.52,347.33,455.26z"/>
<path class="st0" d="M358.56,460.88c0,0.15-0.07,0.22-0.22,0.22h-0.86c-0.15,0-0.22-0.07-0.22-0.22l0.04-9.36
	c0-0.15,0.07-0.22,0.22-0.22h0.78c0.15,0,0.22,0.07,0.22,0.22L358.56,460.88z M358.54,448.73c0,0.15-0.07,0.22-0.22,0.22h-0.78
	c-0.15,0-0.22-0.07-0.22-0.22v-1.21c0-0.15,0.07-0.22,0.22-0.22h0.78c0.15,0,0.22,0.07,0.22,0.22V448.73z"/>
<path class="st0" d="M368.44,452.16v0.02c0,0.04-0.06,0.17-0.11,0.24l-5.67,7.55v0.07h5.63c0.15,0,0.22,0.07,0.22,0.22v0.61
	c0,0.15-0.07,0.22-0.22,0.22h-6.93c-0.15,0-0.22-0.07-0.22-0.22v-0.63c0-0.02,0.06-0.15,0.11-0.24l5.76-7.57v-0.07h-5.42
	c-0.15,0-0.22-0.07-0.22-0.22v-0.62c0-0.15,0.07-0.22,0.22-0.22h6.64c0.15,0,0.22,0.07,0.22,0.22V452.16z"/>
</svg>
